<mxfile host="app.diagrams.net" modified="2023-10-28T19:08:43.066Z" agent="Mozilla/5.0 (X11; Linux x86_64) AppleWebKit/537.36 (KHTML, like Gecko) Chrome/118.0.0.0 Safari/537.36" etag="-mUpiESkzpHdSE3br_TN" version="22.0.8" type="device">
  <diagram name="Page-1" id="csH8KrjJGsYcvIHJfsu-">
    <mxGraphModel dx="1259" dy="692" grid="1" gridSize="10" guides="1" tooltips="1" connect="1" arrows="1" fold="1" page="1" pageScale="1" pageWidth="850" pageHeight="1100" math="0" shadow="0">
      <root>
        <mxCell id="0" />
        <mxCell id="1" parent="0" />
        <mxCell id="mU2SaSNwN_DjmjeyhAGa-24" value="Figura" style="swimlane;fontStyle=0;childLayout=stackLayout;horizontal=1;startSize=26;fillColor=none;horizontalStack=0;resizeParent=1;resizeParentMax=0;resizeLast=0;collapsible=1;marginBottom=0;whiteSpace=wrap;html=1;" vertex="1" parent="1">
          <mxGeometry x="30" y="40" width="140" height="52" as="geometry" />
        </mxCell>
        <mxCell id="mU2SaSNwN_DjmjeyhAGa-25" value="# name: String" style="text;strokeColor=none;fillColor=none;align=left;verticalAlign=top;spacingLeft=4;spacingRight=4;overflow=hidden;rotatable=0;points=[[0,0.5],[1,0.5]];portConstraint=eastwest;whiteSpace=wrap;html=1;" vertex="1" parent="mU2SaSNwN_DjmjeyhAGa-24">
          <mxGeometry y="26" width="140" height="26" as="geometry" />
        </mxCell>
        <mxCell id="mU2SaSNwN_DjmjeyhAGa-28" value="Circle" style="swimlane;fontStyle=1;align=center;verticalAlign=top;childLayout=stackLayout;horizontal=1;startSize=26;horizontalStack=0;resizeParent=1;resizeParentMax=0;resizeLast=0;collapsible=1;marginBottom=0;whiteSpace=wrap;html=1;" vertex="1" parent="1">
          <mxGeometry x="240" y="40" width="160" height="86" as="geometry" />
        </mxCell>
        <mxCell id="mU2SaSNwN_DjmjeyhAGa-29" value="- radio: double" style="text;strokeColor=none;fillColor=none;align=left;verticalAlign=top;spacingLeft=4;spacingRight=4;overflow=hidden;rotatable=0;points=[[0,0.5],[1,0.5]];portConstraint=eastwest;whiteSpace=wrap;html=1;" vertex="1" parent="mU2SaSNwN_DjmjeyhAGa-28">
          <mxGeometry y="26" width="160" height="26" as="geometry" />
        </mxCell>
        <mxCell id="mU2SaSNwN_DjmjeyhAGa-30" value="" style="line;strokeWidth=1;fillColor=none;align=left;verticalAlign=middle;spacingTop=-1;spacingLeft=3;spacingRight=3;rotatable=0;labelPosition=right;points=[];portConstraint=eastwest;strokeColor=inherit;" vertex="1" parent="mU2SaSNwN_DjmjeyhAGa-28">
          <mxGeometry y="52" width="160" height="8" as="geometry" />
        </mxCell>
        <mxCell id="mU2SaSNwN_DjmjeyhAGa-31" value="+ area: double" style="text;strokeColor=none;fillColor=none;align=left;verticalAlign=top;spacingLeft=4;spacingRight=4;overflow=hidden;rotatable=0;points=[[0,0.5],[1,0.5]];portConstraint=eastwest;whiteSpace=wrap;html=1;" vertex="1" parent="mU2SaSNwN_DjmjeyhAGa-28">
          <mxGeometry y="60" width="160" height="26" as="geometry" />
        </mxCell>
        <mxCell id="mU2SaSNwN_DjmjeyhAGa-36" value="Square" style="swimlane;fontStyle=1;align=center;verticalAlign=top;childLayout=stackLayout;horizontal=1;startSize=26;horizontalStack=0;resizeParent=1;resizeParentMax=0;resizeLast=0;collapsible=1;marginBottom=0;whiteSpace=wrap;html=1;" vertex="1" parent="1">
          <mxGeometry x="440" y="160" width="160" height="52" as="geometry" />
        </mxCell>
        <mxCell id="mU2SaSNwN_DjmjeyhAGa-40" value="Parallelogram" style="swimlane;fontStyle=1;align=center;verticalAlign=top;childLayout=stackLayout;horizontal=1;startSize=26;horizontalStack=0;resizeParent=1;resizeParentMax=0;resizeLast=0;collapsible=1;marginBottom=0;whiteSpace=wrap;html=1;" vertex="1" parent="1">
          <mxGeometry x="240" y="160" width="160" height="114" as="geometry" />
        </mxCell>
        <mxCell id="mU2SaSNwN_DjmjeyhAGa-41" value="- base: double&lt;br&gt;- height: double&lt;br&gt;- typeParallelogram: enum" style="text;strokeColor=none;fillColor=none;align=left;verticalAlign=top;spacingLeft=4;spacingRight=4;overflow=hidden;rotatable=0;points=[[0,0.5],[1,0.5]];portConstraint=eastwest;whiteSpace=wrap;html=1;" vertex="1" parent="mU2SaSNwN_DjmjeyhAGa-40">
          <mxGeometry y="26" width="160" height="54" as="geometry" />
        </mxCell>
        <mxCell id="mU2SaSNwN_DjmjeyhAGa-42" value="" style="line;strokeWidth=1;fillColor=none;align=left;verticalAlign=middle;spacingTop=-1;spacingLeft=3;spacingRight=3;rotatable=0;labelPosition=right;points=[];portConstraint=eastwest;strokeColor=inherit;" vertex="1" parent="mU2SaSNwN_DjmjeyhAGa-40">
          <mxGeometry y="80" width="160" height="8" as="geometry" />
        </mxCell>
        <mxCell id="mU2SaSNwN_DjmjeyhAGa-43" value="+ area: double" style="text;strokeColor=none;fillColor=none;align=left;verticalAlign=top;spacingLeft=4;spacingRight=4;overflow=hidden;rotatable=0;points=[[0,0.5],[1,0.5]];portConstraint=eastwest;whiteSpace=wrap;html=1;" vertex="1" parent="mU2SaSNwN_DjmjeyhAGa-40">
          <mxGeometry y="88" width="160" height="26" as="geometry" />
        </mxCell>
        <mxCell id="mU2SaSNwN_DjmjeyhAGa-45" value="Rectangle" style="swimlane;fontStyle=1;align=center;verticalAlign=top;childLayout=stackLayout;horizontal=1;startSize=26;horizontalStack=0;resizeParent=1;resizeParentMax=0;resizeLast=0;collapsible=1;marginBottom=0;whiteSpace=wrap;html=1;" vertex="1" parent="1">
          <mxGeometry x="440" y="218" width="160" height="56" as="geometry" />
        </mxCell>
        <mxCell id="mU2SaSNwN_DjmjeyhAGa-54" value="+ hipotenusa: double" style="text;html=1;align=left;verticalAlign=middle;resizable=0;points=[];autosize=1;strokeColor=none;fillColor=none;" vertex="1" parent="mU2SaSNwN_DjmjeyhAGa-45">
          <mxGeometry y="26" width="160" height="30" as="geometry" />
        </mxCell>
        <mxCell id="mU2SaSNwN_DjmjeyhAGa-50" value="Triangle" style="swimlane;fontStyle=1;align=center;verticalAlign=top;childLayout=stackLayout;horizontal=1;startSize=26;horizontalStack=0;resizeParent=1;resizeParentMax=0;resizeLast=0;collapsible=1;marginBottom=0;whiteSpace=wrap;html=1;" vertex="1" parent="1">
          <mxGeometry x="240" y="300" width="160" height="130" as="geometry" />
        </mxCell>
        <mxCell id="mU2SaSNwN_DjmjeyhAGa-51" value="- base: double&lt;br&gt;- height: double&lt;br&gt;- type: enum" style="text;strokeColor=none;fillColor=none;align=left;verticalAlign=top;spacingLeft=4;spacingRight=4;overflow=hidden;rotatable=0;points=[[0,0.5],[1,0.5]];portConstraint=eastwest;whiteSpace=wrap;html=1;" vertex="1" parent="mU2SaSNwN_DjmjeyhAGa-50">
          <mxGeometry y="26" width="160" height="54" as="geometry" />
        </mxCell>
        <mxCell id="mU2SaSNwN_DjmjeyhAGa-52" value="" style="line;strokeWidth=1;fillColor=none;align=left;verticalAlign=middle;spacingTop=-1;spacingLeft=3;spacingRight=3;rotatable=0;labelPosition=right;points=[];portConstraint=eastwest;strokeColor=inherit;" vertex="1" parent="mU2SaSNwN_DjmjeyhAGa-50">
          <mxGeometry y="80" width="160" height="8" as="geometry" />
        </mxCell>
        <mxCell id="mU2SaSNwN_DjmjeyhAGa-53" value="+ area: double&lt;br&gt;+ typeTriangle: enum" style="text;strokeColor=none;fillColor=none;align=left;verticalAlign=top;spacingLeft=4;spacingRight=4;overflow=hidden;rotatable=0;points=[[0,0.5],[1,0.5]];portConstraint=eastwest;whiteSpace=wrap;html=1;" vertex="1" parent="mU2SaSNwN_DjmjeyhAGa-50">
          <mxGeometry y="88" width="160" height="42" as="geometry" />
        </mxCell>
        <mxCell id="mU2SaSNwN_DjmjeyhAGa-55" value="«&lt;b&gt;enumParallelogram&lt;/b&gt;»&lt;br&gt;square&lt;br&gt;rectangle" style="html=1;whiteSpace=wrap;" vertex="1" parent="1">
          <mxGeometry x="680" y="42" width="160" height="50" as="geometry" />
        </mxCell>
        <mxCell id="mU2SaSNwN_DjmjeyhAGa-56" value="«&lt;b&gt;enumTriangle&lt;/b&gt;»&lt;br&gt;equilateral&lt;br&gt;isosceles&lt;br&gt;scalene" style="html=1;whiteSpace=wrap;" vertex="1" parent="1">
          <mxGeometry x="680" y="128" width="160" height="80" as="geometry" />
        </mxCell>
        <mxCell id="mU2SaSNwN_DjmjeyhAGa-61" style="edgeStyle=orthogonalEdgeStyle;rounded=0;orthogonalLoop=1;jettySize=auto;html=1;exitX=1;exitY=0.5;exitDx=0;exitDy=0;entryX=0.005;entryY=0.185;entryDx=0;entryDy=0;entryPerimeter=0;" edge="1" parent="1" source="mU2SaSNwN_DjmjeyhAGa-24" target="mU2SaSNwN_DjmjeyhAGa-28">
          <mxGeometry relative="1" as="geometry" />
        </mxCell>
        <mxCell id="mU2SaSNwN_DjmjeyhAGa-62" style="edgeStyle=orthogonalEdgeStyle;rounded=0;orthogonalLoop=1;jettySize=auto;html=1;exitX=1;exitY=0.5;exitDx=0;exitDy=0;entryX=0.005;entryY=0.116;entryDx=0;entryDy=0;entryPerimeter=0;" edge="1" parent="1" source="mU2SaSNwN_DjmjeyhAGa-24" target="mU2SaSNwN_DjmjeyhAGa-40">
          <mxGeometry relative="1" as="geometry" />
        </mxCell>
        <mxCell id="mU2SaSNwN_DjmjeyhAGa-63" style="edgeStyle=orthogonalEdgeStyle;rounded=0;orthogonalLoop=1;jettySize=auto;html=1;exitX=1;exitY=0.5;exitDx=0;exitDy=0;entryX=0;entryY=0.122;entryDx=0;entryDy=0;entryPerimeter=0;" edge="1" parent="1" source="mU2SaSNwN_DjmjeyhAGa-24" target="mU2SaSNwN_DjmjeyhAGa-50">
          <mxGeometry relative="1" as="geometry" />
        </mxCell>
        <mxCell id="mU2SaSNwN_DjmjeyhAGa-64" style="edgeStyle=orthogonalEdgeStyle;rounded=0;orthogonalLoop=1;jettySize=auto;html=1;exitX=1;exitY=0.5;exitDx=0;exitDy=0;entryX=0;entryY=0.25;entryDx=0;entryDy=0;" edge="1" parent="1" source="mU2SaSNwN_DjmjeyhAGa-41" target="mU2SaSNwN_DjmjeyhAGa-36">
          <mxGeometry relative="1" as="geometry" />
        </mxCell>
        <mxCell id="mU2SaSNwN_DjmjeyhAGa-65" style="edgeStyle=orthogonalEdgeStyle;rounded=0;orthogonalLoop=1;jettySize=auto;html=1;exitX=1;exitY=0.5;exitDx=0;exitDy=0;entryX=0;entryY=0.25;entryDx=0;entryDy=0;" edge="1" parent="1" source="mU2SaSNwN_DjmjeyhAGa-41" target="mU2SaSNwN_DjmjeyhAGa-45">
          <mxGeometry relative="1" as="geometry" />
        </mxCell>
      </root>
    </mxGraphModel>
  </diagram>
</mxfile>
